<svg width="18" height="22" viewBox="0 0 18 22" fill="none" xmlns="http://www.w3.org/2000/svg">
<path fill-rule="evenodd" clip-rule="evenodd" d="M5.5179 1.92243e-07L9.75 4.30662e-07C9.94891 4.30662e-07 10.1397 0.0790181 10.2803 0.21967L17.2803 7.21967C17.421 7.36032 17.5 7.55109 17.5 7.75V15.9821C17.5 16.795 17.5 17.4506 17.4566 17.9815C17.412 18.5281 17.3176 19.0082 17.0913 19.4525C16.7318 20.1581 16.1581 20.7317 15.4525 21.0913C15.0082 21.3176 14.5281 21.412 13.9815 21.4566C13.4506 21.5 12.795 21.5 11.9821 21.5H5.51788C4.70505 21.5 4.04944 21.5 3.51853 21.4566C2.9719 21.412 2.49175 21.3176 2.04754 21.0913C1.34193 20.7317 0.768251 20.1581 0.408726 19.4525C0.182385 19.0082 0.0880258 18.5281 0.0433638 17.9815C-1.32173e-05 17.4506 -7.19873e-06 16.7949 1.92243e-07 15.9821V5.5179C-7.19873e-06 4.70506 -1.32173e-05 4.04944 0.0433638 3.51853C0.0880258 2.9719 0.182385 2.49175 0.408726 2.04754C0.768251 1.34193 1.34193 0.768251 2.04754 0.408726C2.49175 0.182385 2.9719 0.0880258 3.51853 0.0433638C4.04944 -1.32173e-05 4.70506 -7.19873e-06 5.5179 1.92243e-07ZM3.64068 1.53838C3.1868 1.57547 2.92604 1.6446 2.72852 1.74524C2.30516 1.96095 1.96095 2.30516 1.74524 2.72852C1.6446 2.92604 1.57547 3.1868 1.53838 3.64068C1.50058 4.10331 1.5 4.69755 1.5 5.55V15.95C1.5 16.8025 1.50058 17.3967 1.53838 17.8593C1.57547 18.3132 1.6446 18.574 1.74524 18.7715C1.96095 19.1948 2.30516 19.539 2.72852 19.7548C2.92604 19.8554 3.1868 19.9245 3.64068 19.9616C4.10331 19.9994 4.69755 20 5.55 20H11.95C12.8025 20 13.3967 19.9994 13.8593 19.9616C14.3132 19.9245 14.574 19.8554 14.7715 19.7548C15.1948 19.539 15.5391 19.1948 15.7548 18.7715C15.8554 18.574 15.9245 18.3132 15.9616 17.8593C15.9994 17.3967 16 16.8025 16 15.95V8.5L11.3238 8.5C11.0663 8.50002 10.8298 8.50004 10.6321 8.48388C10.419 8.46647 10.1858 8.42661 9.95552 8.30926C9.62623 8.14148 9.35852 7.87377 9.19074 7.54448C9.07339 7.31418 9.03353 7.08101 9.01612 6.86787C8.99996 6.67019 8.99998 6.43371 9 6.17623L9 1.5H5.55C4.69755 1.5 4.10331 1.50058 3.64068 1.53838ZM10.5 2.56066L14.9393 7H11.35C11.0576 7 10.8834 6.99942 10.7543 6.98887C10.6755 6.98243 10.6423 6.97393 10.6335 6.97118C10.5888 6.94766 10.5523 6.91118 10.5288 6.86654C10.5261 6.85766 10.5176 6.82453 10.5111 6.74572C10.5006 6.6166 10.5 6.4424 10.5 6.15V2.56066ZM10.5297 6.86913C10.5297 6.86916 10.5295 6.86869 10.5292 6.86764L10.5297 6.86913ZM10.6309 6.97027C10.6309 6.97026 10.6314 6.97044 10.6324 6.97083L10.6309 6.97027ZM8.21967 10.2197C8.51256 9.92678 8.98744 9.92678 9.28033 10.2197L12.2803 13.2197C12.5732 13.5126 12.5732 13.9874 12.2803 14.2803C11.9874 14.5732 11.5126 14.5732 11.2197 14.2803L9.5 12.5607L9.5 17.75C9.5 18.1642 9.16421 18.5 8.75 18.5C8.33579 18.5 8 18.1642 8 17.75L8 12.5607L6.28033 14.2803C5.98744 14.5732 5.51256 14.5732 5.21967 14.2803C4.92678 13.9874 4.92678 13.5126 5.21967 13.2197L8.21967 10.2197Z" fill="white"/>
</svg>
