<svg width="29" height="29" viewBox="0 0 29 29" fill="none" xmlns="http://www.w3.org/2000/svg">
<path d="M4.90723 23.2798H7.88086V24.5615H4.90723V27.9307H3.54492V24.5615H0.571289V23.2798H3.54492V20.167H4.90723V23.2798Z" fill="white"/>
<path fill-rule="evenodd" clip-rule="evenodd" d="M16.5179 1.92243e-07L20.75 4.30662e-07C20.9489 4.30662e-07 21.1397 0.0790181 21.2803 0.21967L28.2803 7.21967C28.421 7.36032 28.5 7.55109 28.5 7.75V15.9821C28.5 16.2383 28.5 16.4789 28.4986 16.7049C28.5007 16.7385 28.5004 16.7721 28.4979 16.8057C28.4943 17.2539 28.4843 17.643 28.4566 17.9815C28.412 18.5281 28.3176 19.0082 28.0913 19.4525C27.7318 20.1581 27.1581 20.7317 26.4525 21.0913C26.0082 21.3176 25.5281 21.412 24.9815 21.4566C24.4506 21.5 23.795 21.5 22.9821 21.5H16.5179C15.705 21.5 15.0494 21.5 14.5185 21.4566C13.9719 21.412 13.4918 21.3176 13.0475 21.0913C12.3419 20.7317 11.7683 20.1581 11.4087 19.4525C11.1824 19.0082 11.088 18.5281 11.0434 17.9815C11 17.4506 11 16.7949 11 15.9821V5.5179C11 4.70506 11 4.04944 11.0434 3.51853C11.088 2.9719 11.1824 2.49175 11.4087 2.04754C11.7683 1.34193 12.3419 0.768251 13.0475 0.408726C13.4918 0.182385 13.9719 0.0880258 14.5185 0.0433638C15.0494 -1.32173e-05 15.7051 -7.19873e-06 16.5179 1.92243e-07ZM27 14.9393V8.5L22.3238 8.5C22.0663 8.50002 21.8298 8.50004 21.6321 8.48388C21.419 8.46647 21.1858 8.42661 20.9555 8.30926C20.6262 8.14148 20.3585 7.87377 20.1907 7.54448C20.0734 7.31418 20.0335 7.08101 20.0161 6.86787C20 6.67019 20 6.43371 20 6.17623L20 1.5H16.55C15.6975 1.5 15.1033 1.50058 14.6407 1.53838C14.1868 1.57547 13.926 1.6446 13.7285 1.74524C13.3052 1.96095 12.961 2.30516 12.7452 2.72852C12.6446 2.92604 12.5755 3.1868 12.5384 3.64068C12.5006 4.10331 12.5 4.69755 12.5 5.55V15.95C12.5 16.8025 12.5006 17.3967 12.5384 17.8593C12.5723 18.2743 12.633 18.5279 12.7201 18.7193L16.2197 15.2197C16.5126 14.9268 16.9874 14.9268 17.2803 15.2197L18.75 16.6893L23.2197 12.2197C23.5126 11.9268 23.9874 11.9268 24.2803 12.2197L27 14.9393ZM13.7807 19.7799C13.9721 19.867 14.2257 19.9277 14.6407 19.9616C15.1033 19.9994 15.6975 20 16.55 20H22.95C23.8025 20 24.3967 19.9994 24.8593 19.9616C25.3132 19.9245 25.574 19.8554 25.7715 19.7548C26.1948 19.539 26.539 19.1948 26.7548 18.7715C26.8554 18.574 26.9245 18.3132 26.9616 17.8593C26.9804 17.6292 26.99 17.3664 26.9949 17.0556L23.75 13.8107L19.2803 18.2803C18.9874 18.5732 18.5126 18.5732 18.2197 18.2803L16.75 16.8107L13.7807 19.7799ZM21.5 2.56066L25.9393 7H22.35C22.0576 7 21.8834 6.99942 21.7543 6.98887C21.6755 6.98243 21.6423 6.97393 21.6335 6.97118C21.5888 6.94766 21.5523 6.91118 21.5288 6.86654C21.5261 6.85765 21.5176 6.82453 21.5111 6.74572C21.5006 6.6166 21.5 6.4424 21.5 6.15V2.56066ZM21.5297 6.86913L21.5292 6.86764L21.5297 6.86913ZM21.6309 6.97027L21.6324 6.97083L21.6309 6.97027Z" fill="white"/>
<path d="M17.75 10.25C17.75 11.0784 17.0784 11.75 16.25 11.75C15.4216 11.75 14.75 11.0784 14.75 10.25C14.75 9.42157 15.4216 8.75 16.25 8.75C17.0784 8.75 17.75 9.42157 17.75 10.25Z" fill="white"/>
</svg>
