<svg width="27" height="23" viewBox="0 0 27 23" fill="none" xmlns="http://www.w3.org/2000/svg">
<path d="M20.3409 10.8131L10.2624 0.319824L7.86278 2.73902L0.663658 10.8131C-0.221219 11.7052 -0.221219 13.1416 0.663658 14.0185L8.91251 22.3345C9.34745 22.773 9.93237 22.9998 10.5023 22.9998C11.0722 22.9998 11.6571 22.773 12.0921 22.3345L20.3409 14.0185C21.2258 13.1416 21.2258 11.7052 20.3409 10.8131ZM2.46341 12.4158L10.2623 3.34382L18.6612 12.4158H2.46341ZM24.0004 14.6838C24.0004 14.6838 21.0008 17.9649 21.0008 19.9758C21.0008 21.639 22.3506 22.9998 24.0004 22.9998C25.6502 22.9998 27 21.639 27 19.9758C27 17.9649 24.0004 14.6838 24.0004 14.6838Z" fill="white"/>
</svg>
