<svg width="11" height="15" viewBox="0 0 11 15" fill="none" xmlns="http://www.w3.org/2000/svg">
<path d="M0.650391 15V0.78125H5.29883C6.8418 0.78125 8.00065 1.10026 8.77539 1.73828C9.55664 2.3763 9.94727 3.32031 9.94727 4.57031C9.94727 5.23438 9.75846 5.82357 9.38086 6.33789C9.00326 6.8457 8.48893 7.23958 7.83789 7.51953C8.60612 7.73438 9.21159 8.14453 9.6543 8.75C10.1035 9.34896 10.3281 10.0651 10.3281 10.8984C10.3281 12.1745 9.91471 13.1771 9.08789 13.9062C8.26107 14.6354 7.09245 15 5.58203 15H0.650391ZM2.52539 8.34961V13.4668H5.62109C6.49349 13.4668 7.18034 13.2422 7.68164 12.793C8.18945 12.3372 8.44336 11.7122 8.44336 10.918C8.44336 9.20573 7.51237 8.34961 5.65039 8.34961H2.52539ZM2.52539 6.8457H5.35742C6.17773 6.8457 6.83203 6.64062 7.32031 6.23047C7.8151 5.82031 8.0625 5.26367 8.0625 4.56055C8.0625 3.7793 7.83464 3.21289 7.37891 2.86133C6.92318 2.50326 6.22982 2.32422 5.29883 2.32422H2.52539V6.8457Z" fill="#FEFAFA"/>
</svg>
