<svg width="13" height="17" viewBox="0 0 13 17" fill="none" xmlns="http://www.w3.org/2000/svg">
<path d="M1.65039 16V1.78125H6.29883C7.8418 1.78125 9.00065 2.10026 9.77539 2.73828C10.5566 3.3763 10.9473 4.32031 10.9473 5.57031C10.9473 6.23438 10.7585 6.82357 10.3809 7.33789C10.0033 7.8457 9.48893 8.23958 8.83789 8.51953C9.60612 8.73438 10.2116 9.14453 10.6543 9.75C11.1035 10.349 11.3281 11.0651 11.3281 11.8984C11.3281 13.1745 10.9147 14.1771 10.0879 14.9062C9.26107 15.6354 8.09245 16 6.58203 16H1.65039ZM3.52539 9.34961V14.4668H6.62109C7.49349 14.4668 8.18034 14.2422 8.68164 13.793C9.18945 13.3372 9.44336 12.7122 9.44336 11.918C9.44336 10.2057 8.51237 9.34961 6.65039 9.34961H3.52539ZM3.52539 7.8457H6.35742C7.17773 7.8457 7.83203 7.64062 8.32031 7.23047C8.8151 6.82031 9.0625 6.26367 9.0625 5.56055C9.0625 4.7793 8.83464 4.21289 8.37891 3.86133C7.92318 3.50326 7.22982 3.32422 6.29883 3.32422H3.52539V7.8457Z" fill="#FEFAFA"/>
<path d="M1.65039 16H0.650391V17H1.65039V16ZM1.65039 1.78125V0.78125H0.650391V1.78125H1.65039ZM9.77539 2.73828L9.13968 3.51022L9.14286 3.51281L9.77539 2.73828ZM10.3809 7.33789L11.1833 7.9346L11.1869 7.9297L10.3809 7.33789ZM8.83789 8.51953L8.44286 7.60086L5.84083 8.71974L8.56856 9.48258L8.83789 8.51953ZM10.6543 9.75L9.84701 10.3403L9.8543 10.35L10.6543 9.75ZM10.0879 14.9062L9.42646 14.1562L10.0879 14.9062ZM3.52539 9.34961V8.34961H2.52539V9.34961H3.52539ZM3.52539 14.4668H2.52539V15.4668H3.52539V14.4668ZM8.68164 13.793L9.349 14.5377L9.34955 14.5372L8.68164 13.793ZM3.52539 7.8457H2.52539V8.8457H3.52539V7.8457ZM8.32031 7.23047L7.68211 6.46057L7.67712 6.46476L8.32031 7.23047ZM8.37891 3.86133L7.76106 4.64768L7.7681 4.65311L8.37891 3.86133ZM3.52539 3.32422V2.32422H2.52539V3.32422H3.52539ZM2.65039 16V1.78125H0.650391V16H2.65039ZM1.65039 2.78125H6.29883V0.78125H1.65039V2.78125ZM6.29883 2.78125C7.72853 2.78125 8.61807 3.08065 9.13968 3.51021L10.4111 1.96635C9.38323 1.11987 7.95507 0.78125 6.29883 0.78125V2.78125ZM9.14286 3.51281C9.63677 3.91618 9.94727 4.54186 9.94727 5.57031H11.9473C11.9473 4.09876 11.4765 2.83642 10.4079 1.96375L9.14286 3.51281ZM9.94727 5.57031C9.94727 6.03077 9.82102 6.41069 9.57478 6.74608L11.1869 7.9297C11.6959 7.23645 11.9473 6.43798 11.9473 5.57031H9.94727ZM9.5784 6.74119C9.31805 7.0913 8.95194 7.38196 8.44286 7.60086L9.23292 9.4382C10.0259 9.09721 10.6885 8.6001 11.1833 7.93459L9.5784 6.74119ZM8.56856 9.48258C9.13546 9.64112 9.54551 9.92781 9.84706 10.3402L11.4615 9.15977C10.8777 8.36125 10.0768 7.82763 9.10722 7.55648L8.56856 9.48258ZM9.8543 10.35C10.1591 10.7564 10.3281 11.2557 10.3281 11.8984H12.3281C12.3281 10.8745 12.048 9.94157 11.4543 9.15L9.8543 10.35ZM10.3281 11.8984C10.3281 12.9374 10.0032 13.6476 9.42646 14.1562L10.7493 15.6563C11.8262 14.7066 12.3281 13.4115 12.3281 11.8984H10.3281ZM9.42646 14.1562C8.84039 14.6731 7.93942 15 6.58203 15V17C8.24548 17 9.68175 16.5977 10.7493 15.6563L9.42646 14.1562ZM6.58203 15H1.65039V17H6.58203V15ZM2.52539 9.34961V14.4668H4.52539V9.34961H2.52539ZM3.52539 15.4668H6.62109V13.4668H3.52539V15.4668ZM6.62109 15.4668C7.66494 15.4668 8.61528 15.1952 9.349 14.5377L8.01428 13.0482C7.7454 13.2892 7.32204 13.4668 6.62109 13.4668V15.4668ZM9.34955 14.5372C10.1041 13.8601 10.4434 12.945 10.4434 11.918H8.44336C8.44336 12.4795 8.27485 12.8144 8.01373 13.0487L9.34955 14.5372ZM10.4434 11.918C10.4434 10.8852 10.1587 9.93306 9.42201 9.25561C8.70118 8.59276 7.71571 8.34961 6.65039 8.34961V10.3496C7.44705 10.3496 7.85806 10.5345 8.06823 10.7278C8.26253 10.9065 8.44336 11.2385 8.44336 11.918H10.4434ZM6.65039 8.34961H3.52539V10.3496H6.65039V8.34961ZM3.52539 8.8457H6.35742V6.8457H3.52539V8.8457ZM6.35742 8.8457C7.34429 8.8457 8.24864 8.59666 8.9635 7.99617L7.67712 6.46476C7.41542 6.68459 7.01118 6.8457 6.35742 6.8457V8.8457ZM8.9585 8.00035C9.70587 7.38082 10.0625 6.52958 10.0625 5.56055H8.0625C8.0625 5.99777 7.92434 6.25981 7.68212 6.46059L8.9585 8.00035ZM10.0625 5.56055C10.0625 4.58806 9.77167 3.67277 8.98971 3.06955L7.7681 4.65311C7.8976 4.75301 8.0625 4.97053 8.0625 5.56055H10.0625ZM8.99673 3.07501C8.28617 2.51672 7.32759 2.32422 6.29883 2.32422V4.32422C7.13205 4.32422 7.56018 4.48979 7.76108 4.64765L8.99673 3.07501ZM6.29883 2.32422H3.52539V4.32422H6.29883V2.32422ZM2.52539 3.32422V7.8457H4.52539V3.32422H2.52539Z" fill="#FEFAFA"/>
</svg>
