<svg width="11" height="15" viewBox="0 0 11 15" fill="none" xmlns="http://www.w3.org/2000/svg">
<path d="M0.269531 15V0.78125H5.25C6.97526 0.78125 8.28385 1.11328 9.17578 1.77734C10.0677 2.4349 10.5137 3.40169 10.5137 4.67773C10.5137 5.37435 10.3346 5.98958 9.97656 6.52344C9.61849 7.05078 9.12044 7.43815 8.48242 7.68555C9.21159 7.86784 9.78451 8.23568 10.2012 8.78906C10.6243 9.34245 10.8359 10.0195 10.8359 10.8203C10.8359 12.1875 10.3997 13.2227 9.52734 13.9258C8.65495 14.6289 7.41146 14.987 5.79688 15H0.269531ZM3.19922 8.80859V12.6465H5.70898C6.39909 12.6465 6.9362 12.4837 7.32031 12.1582C7.71094 11.8262 7.90625 11.3704 7.90625 10.791C7.90625 9.48893 7.23242 8.82812 5.88477 8.80859H3.19922ZM3.19922 6.73828H5.36719C6.84505 6.71224 7.58398 6.12305 7.58398 4.9707C7.58398 4.32617 7.39518 3.86393 7.01758 3.58398C6.64648 3.29753 6.05729 3.1543 5.25 3.1543H3.19922V6.73828Z" fill="#FEFAFA"/>
</svg>
