<svg width="13" height="22" viewBox="0 0 13 22" fill="none" xmlns="http://www.w3.org/2000/svg">
<path d="M11.6602 3.78125V13.4492C11.6536 14.7904 11.2305 15.8874 10.3906 16.7402C9.55729 17.5931 8.42448 18.0716 6.99219 18.1758L6.49414 18.1953C4.93815 18.1953 3.69792 17.7754 2.77344 16.9355C1.84896 16.0957 1.38021 14.9401 1.36719 13.4688V3.78125H3.22266V13.4102C3.22266 14.4388 3.50586 15.2396 4.07227 15.8125C4.63867 16.3789 5.44596 16.6621 6.49414 16.6621C7.55534 16.6621 8.36589 16.3789 8.92578 15.8125C9.49219 15.2461 9.77539 14.4486 9.77539 13.4199V3.78125H11.6602Z" fill="#FEFAFA"/>
<line x1="1" y1="19.5" x2="12" y2="19.5" stroke="white"/>
</svg>
