<svg width="11" height="16" viewBox="0 0 11 16" fill="none" xmlns="http://www.w3.org/2000/svg">
<path d="M10.6602 0.78125V10.4492C10.6536 11.7904 10.2305 12.8874 9.39062 13.7402C8.55729 14.5931 7.42448 15.0716 5.99219 15.1758L5.49414 15.1953C3.93815 15.1953 2.69792 14.7754 1.77344 13.9355C0.848958 13.0957 0.380208 11.9401 0.367188 10.4688V0.78125H2.22266V10.4102C2.22266 11.4388 2.50586 12.2396 3.07227 12.8125C3.63867 13.3789 4.44596 13.6621 5.49414 13.6621C6.55534 13.6621 7.36589 13.3789 7.92578 12.8125C8.49219 12.2461 8.77539 11.4486 8.77539 10.4199V0.78125H10.6602Z" fill="#FEFAFA"/>
</svg>
