<svg width="38" height="28" viewBox="0 0 38 28" fill="none" xmlns="http://www.w3.org/2000/svg">
<path d="M4.90723 22.2798H7.88086V23.5615H4.90723V26.9307H3.54492V23.5615H0.571289V22.2798H3.54492V19.167H4.90723V22.2798Z" fill="white"/>
<path fill-rule="evenodd" clip-rule="evenodd" d="M18.6728 2.30692e-07L20.8712 5.16794e-07C22.2068 5.16794e-07 23.4876 0.526474 24.432 1.4636C25.0362 2.06317 25.8557 2.4 26.7102 2.4L31.3272 2.4C32.3102 2.39999 33.103 2.39998 33.745 2.45204C34.4061 2.50563 34.9867 2.61886 35.5239 2.89047C36.3772 3.3219 37.071 4.01031 37.5057 4.85704C37.7794 5.39011 37.8935 5.96627 37.9476 6.62224C38 7.25933 38 8.04606 38 9.02145V14.3785C38 15.3539 38 16.1407 37.9476 16.7778C37.8935 17.4337 37.7794 18.0099 37.5057 18.543C37.071 19.3897 36.3772 20.0781 35.5239 20.5095C34.9867 20.7811 34.4061 20.8944 33.745 20.948C33.103 21 32.3102 21 31.3272 21H18.6728C17.6898 21 16.897 21 16.255 20.948C15.5939 20.8944 15.0133 20.7811 14.4761 20.5095C13.6228 20.0781 12.929 19.3897 12.4943 18.543C12.2206 18.0099 12.1064 17.4337 12.0524 16.7778C12 16.1407 12 15.3539 12 14.3785V6.62148C12 5.64607 12 4.85933 12.0524 4.22224C12.1064 3.56627 12.2206 2.99011 12.4943 2.45704C12.929 1.61031 13.6228 0.921901 14.4761 0.490471C15.0133 0.218862 15.5939 0.105631 16.255 0.0520366C16.897 -1.58623e-05 17.6898 -8.63848e-06 18.6728 2.30692e-07ZM16.4027 1.84606C15.8538 1.89056 15.5385 1.97352 15.2996 2.09428C14.7876 2.35314 14.3714 2.76619 14.1105 3.27423C13.9888 3.51125 13.9052 3.82417 13.8604 4.36882C13.8147 4.92397 13.814 5.63706 13.814 6.66V14.34C13.814 15.3629 13.8147 16.076 13.8604 16.6312C13.9052 17.1758 13.9888 17.4888 14.1105 17.7258C14.3714 18.2338 14.7876 18.6469 15.2996 18.9057C15.5385 19.0265 15.8538 19.1094 16.4027 19.1539C16.9621 19.1993 17.6808 19.2 18.7116 19.2H31.2884C32.3192 19.2 33.0379 19.1993 33.5973 19.1539C34.1462 19.1094 34.4615 19.0265 34.7004 18.9057C35.2124 18.6469 35.6286 18.2338 35.8895 17.7258C36.0112 17.4888 36.0948 17.1758 36.1396 16.6312C36.1853 16.076 36.186 15.3629 36.186 14.34V9.06C36.186 8.03706 36.1853 7.32397 36.1396 6.76882C36.0948 6.22417 36.0112 5.91125 35.8895 5.67423C35.6286 5.16619 35.2124 4.75314 34.7004 4.49428C34.4615 4.37352 34.1462 4.29056 33.5973 4.24606C33.0379 4.2007 32.3192 4.2 31.2884 4.2H26.7102C25.3746 4.2 24.0938 3.67353 23.1494 2.7364C22.5452 2.13683 21.7257 1.8 20.8712 1.8H18.7116C17.6808 1.8 16.9621 1.8007 16.4027 1.84606Z" fill="white"/>
</svg>
