<svg width="32" height="35" viewBox="0 0 32 35" fill="none" xmlns="http://www.w3.org/2000/svg">
<g filter="url(#filter0_d)">
<path d="M14.9393 19.0607C15.5251 19.6464 16.4749 19.6464 17.0607 19.0607L26.6066 9.51472C27.1924 8.92893 27.1924 7.97918 26.6066 7.3934C26.0208 6.80761 25.0711 6.80761 24.4853 7.3934L16 15.8787L7.51472 7.3934C6.92893 6.80761 5.97919 6.80761 5.3934 7.3934C4.80761 7.97919 4.80761 8.92893 5.3934 9.51472L14.9393 19.0607ZM14.5 6.55671e-08L14.5 18L17.5 18L17.5 -6.55671e-08L14.5 6.55671e-08Z" fill="white"/>
</g>
<g filter="url(#filter1_d)">
<line x1="6" y1="22.5" x2="26" y2="22.5" stroke="white" stroke-width="3"/>
</g>
<path d="M6.70312 31.5264C6.70312 31.3701 6.7487 31.2399 6.83984 31.1357C6.93424 31.0316 7.07422 30.9795 7.25977 30.9795C7.44531 30.9795 7.58529 31.0316 7.67969 31.1357C7.77734 31.2399 7.82617 31.3701 7.82617 31.5264C7.82617 31.6761 7.77734 31.8014 7.67969 31.9023C7.58529 32.0033 7.44531 32.0537 7.25977 32.0537C7.07422 32.0537 6.93424 32.0033 6.83984 31.9023C6.7487 31.8014 6.70312 31.6761 6.70312 31.5264ZM13.7832 29.417C13.7832 30.221 13.5993 30.8688 13.2314 31.3604C12.8636 31.8519 12.3656 32.0977 11.7373 32.0977C11.096 32.0977 10.5915 31.8942 10.2236 31.4873V34.0312H9.32031V26.7168H10.1455L10.1895 27.3027C10.5573 26.847 11.0684 26.6191 11.7227 26.6191C12.3574 26.6191 12.8587 26.8584 13.2266 27.3369C13.5977 27.8154 13.7832 28.4811 13.7832 29.334V29.417ZM12.8799 29.3145C12.8799 28.7188 12.7529 28.2484 12.499 27.9033C12.2451 27.5583 11.8968 27.3857 11.4541 27.3857C10.9072 27.3857 10.4971 27.6283 10.2236 28.1133V30.6377C10.4938 31.1195 10.9072 31.3604 11.4639 31.3604C11.8968 31.3604 12.2402 31.1895 12.4941 30.8477C12.7513 30.5026 12.8799 29.9915 12.8799 29.3145ZM14.7158 29.3145C14.7158 28.5039 14.9079 27.8529 15.292 27.3613C15.6761 26.8665 16.179 26.6191 16.8008 26.6191C17.4193 26.6191 17.9092 26.8307 18.2705 27.2539V24.5H19.1738V32H18.3438L18.2998 31.4336C17.9385 31.8763 17.4355 32.0977 16.791 32.0977C16.179 32.0977 15.6794 31.847 15.292 31.3457C14.9079 30.8444 14.7158 30.1901 14.7158 29.3828V29.3145ZM15.6191 29.417C15.6191 30.016 15.7428 30.4847 15.9902 30.8232C16.2376 31.1618 16.5794 31.3311 17.0156 31.3311C17.5885 31.3311 18.0068 31.0739 18.2705 30.5596V28.1328C18.0003 27.6348 17.5853 27.3857 17.0254 27.3857C16.5827 27.3857 16.2376 27.5566 15.9902 27.8984C15.7428 28.2402 15.6191 28.7464 15.6191 29.417ZM21.0244 32V27.415H20.1895V26.7168H21.0244V26.1748C21.0244 25.6084 21.1758 25.1706 21.4785 24.8613C21.7812 24.5521 22.2093 24.3975 22.7627 24.3975C22.971 24.3975 23.1777 24.4251 23.3828 24.4805L23.334 25.2129C23.181 25.1836 23.0182 25.1689 22.8457 25.1689C22.5527 25.1689 22.3265 25.2552 22.167 25.4277C22.0075 25.597 21.9277 25.8411 21.9277 26.1602V26.7168H23.0557V27.415H21.9277V32H21.0244Z" fill="#FFF8F8"/>
<defs>
<filter id="filter0_d" x="0.954102" y="0" width="30.0919" height="27.5" filterUnits="userSpaceOnUse" color-interpolation-filters="sRGB">
<feFlood flood-opacity="0" result="BackgroundImageFix"/>
<feColorMatrix in="SourceAlpha" type="matrix" values="0 0 0 0 0 0 0 0 0 0 0 0 0 0 0 0 0 0 127 0"/>
<feOffset dy="4"/>
<feGaussianBlur stdDeviation="2"/>
<feColorMatrix type="matrix" values="0 0 0 0 0 0 0 0 0 0 0 0 0 0 0 0 0 0 0.25 0"/>
<feBlend mode="normal" in2="BackgroundImageFix" result="effect1_dropShadow"/>
<feBlend mode="normal" in="SourceGraphic" in2="effect1_dropShadow" result="shape"/>
</filter>
<filter id="filter1_d" x="2" y="21" width="28" height="11" filterUnits="userSpaceOnUse" color-interpolation-filters="sRGB">
<feFlood flood-opacity="0" result="BackgroundImageFix"/>
<feColorMatrix in="SourceAlpha" type="matrix" values="0 0 0 0 0 0 0 0 0 0 0 0 0 0 0 0 0 0 127 0"/>
<feOffset dy="4"/>
<feGaussianBlur stdDeviation="2"/>
<feColorMatrix type="matrix" values="0 0 0 0 0 0 0 0 0 0 0 0 0 0 0 0 0 0 0.25 0"/>
<feBlend mode="normal" in2="BackgroundImageFix" result="effect1_dropShadow"/>
<feBlend mode="normal" in="SourceGraphic" in2="effect1_dropShadow" result="shape"/>
</filter>
</defs>
</svg>
