<svg width="25" height="26" viewBox="0 0 25 26" fill="none" xmlns="http://www.w3.org/2000/svg">
<path d="M24.025 13.1681C24.6298 12.602 24.6613 11.6528 24.0952 11.0479L14.8703 1.19137C14.3042 0.586518 13.355 0.555092 12.7502 1.12118C12.1453 1.68726 12.1139 2.63649 12.68 3.24133L20.8798 12.0027L12.1184 20.2026C11.5136 20.7687 11.4822 21.7179 12.0483 22.3228C12.6143 22.9276 13.5636 22.959 14.1684 22.393L24.025 13.1681ZM7.37919 24C8.21659 22.7555 8.217 22.7558 8.21734 22.756C8.21735 22.756 8.21762 22.7562 8.21765 22.7562C8.21771 22.7563 8.21749 22.7561 8.21697 22.7558C8.21595 22.7551 8.21379 22.7536 8.21054 22.7514C8.20402 22.7469 8.1931 22.7395 8.17807 22.7291C8.14799 22.7082 8.10148 22.6758 8.04078 22.6324C7.91926 22.5457 7.74151 22.416 7.52517 22.2499C7.09056 21.9164 6.50993 21.4436 5.91987 20.8844C5.32584 20.3214 4.74894 19.6958 4.30271 19.0591C3.8475 18.4097 3.59157 17.838 3.52054 17.3741C3.45867 16.9699 3.52832 16.6309 3.81282 16.2782C4.14004 15.8725 4.83774 15.3489 6.24917 14.8659C9.08749 13.8946 14.2194 13.283 22.9504 13.5721L23.0496 10.5737C14.2449 10.2823 8.65636 10.8713 5.27783 12.0275C3.58084 12.6082 2.29602 13.3801 1.47766 14.3948C0.616584 15.4624 0.377604 16.6687 0.555095 17.8281C0.72343 18.9276 1.25485 19.9375 1.84603 20.781C2.44619 21.6373 3.17471 22.416 3.85618 23.0618C4.54162 23.7115 5.20658 24.2522 5.69867 24.6298C5.94568 24.8194 6.15157 24.9698 6.29784 25.0742C6.37104 25.1264 6.42947 25.1673 6.47086 25.1959C6.49155 25.2102 6.508 25.2215 6.51991 25.2297C6.52587 25.2337 6.53069 25.237 6.53435 25.2395C6.53618 25.2407 6.53771 25.2417 6.53895 25.2426C6.53957 25.243 6.54028 25.2435 6.54059 25.2437C6.54122 25.2441 6.54178 25.2445 7.37919 24Z" fill="white"/>
</svg>
