<svg width="32" height="24" viewBox="0 0 32 24" fill="none" xmlns="http://www.w3.org/2000/svg">
<g filter="url(#filter0_d)">
<path d="M14.9393 19.0607C15.5251 19.6464 16.4749 19.6464 17.0607 19.0607L26.6066 9.51472C27.1924 8.92893 27.1924 7.97918 26.6066 7.3934C26.0208 6.80761 25.0711 6.80761 24.4853 7.3934L16 15.8787L7.51472 7.3934C6.92893 6.80761 5.97919 6.80761 5.3934 7.3934C4.80761 7.97919 4.80761 8.92893 5.3934 9.51472L14.9393 19.0607ZM14.5 6.55671e-08L14.5 18L17.5 18L17.5 -6.55671e-08L14.5 6.55671e-08Z" fill="white"/>
</g>
<g filter="url(#filter1_d)">
<line x1="6" y1="22.5" x2="26" y2="22.5" stroke="white" stroke-width="3"/>
</g>
<defs>
<filter id="filter0_d" x="0.954102" y="0" width="30.0919" height="27.5" filterUnits="userSpaceOnUse" color-interpolation-filters="sRGB">
<feFlood flood-opacity="0" result="BackgroundImageFix"/>
<feColorMatrix in="SourceAlpha" type="matrix" values="0 0 0 0 0 0 0 0 0 0 0 0 0 0 0 0 0 0 127 0"/>
<feOffset dy="4"/>
<feGaussianBlur stdDeviation="2"/>
<feColorMatrix type="matrix" values="0 0 0 0 0 0 0 0 0 0 0 0 0 0 0 0 0 0 0.25 0"/>
<feBlend mode="normal" in2="BackgroundImageFix" result="effect1_dropShadow"/>
<feBlend mode="normal" in="SourceGraphic" in2="effect1_dropShadow" result="shape"/>
</filter>
<filter id="filter1_d" x="2" y="21" width="28" height="11" filterUnits="userSpaceOnUse" color-interpolation-filters="sRGB">
<feFlood flood-opacity="0" result="BackgroundImageFix"/>
<feColorMatrix in="SourceAlpha" type="matrix" values="0 0 0 0 0 0 0 0 0 0 0 0 0 0 0 0 0 0 127 0"/>
<feOffset dy="4"/>
<feGaussianBlur stdDeviation="2"/>
<feColorMatrix type="matrix" values="0 0 0 0 0 0 0 0 0 0 0 0 0 0 0 0 0 0 0.25 0"/>
<feBlend mode="normal" in2="BackgroundImageFix" result="effect1_dropShadow"/>
<feBlend mode="normal" in="SourceGraphic" in2="effect1_dropShadow" result="shape"/>
</filter>
</defs>
</svg>
