<svg width="24" height="37" viewBox="0 0 24 37" fill="none" xmlns="http://www.w3.org/2000/svg">
<path fill-rule="evenodd" clip-rule="evenodd" d="M11.75 1C12.1642 1 12.5 1.33579 12.5 1.75V14.9393L16.2197 11.2197C16.5126 10.9268 16.9874 10.9268 17.2803 11.2197C17.5732 11.5126 17.5732 11.9874 17.2803 12.2803L12.2803 17.2803C11.9874 17.5732 11.5126 17.5732 11.2197 17.2803L6.21967 12.2803C5.92678 11.9874 5.92678 11.5126 6.21967 11.2197C6.51256 10.9268 6.98744 10.9268 7.28033 11.2197L11 14.9393V1.75C11 1.33579 11.3358 1 11.75 1ZM1.75 11C2.16421 11 2.5 11.3358 2.5 11.75V15.95C2.5 16.8025 2.50058 17.3967 2.53838 17.8593C2.57547 18.3132 2.6446 18.574 2.74524 18.7715C2.96095 19.1948 3.30516 19.539 3.72852 19.7548C3.92604 19.8554 4.1868 19.9245 4.64068 19.9616C5.10331 19.9994 5.69755 20 6.55 20H16.95C17.8025 20 18.3967 19.9994 18.8593 19.9616C19.3132 19.9245 19.574 19.8554 19.7715 19.7548C20.1948 19.539 20.539 19.1948 20.7548 18.7715C20.8554 18.574 20.9245 18.3132 20.9616 17.8593C20.9994 17.3967 21 16.8025 21 15.95V11.75C21 11.3358 21.3358 11 21.75 11C22.1642 11 22.5 11.3358 22.5 11.75V15.9821C22.5 16.795 22.5 17.4506 22.4566 17.9815C22.412 18.5281 22.3176 19.0082 22.0913 19.4525C21.7317 20.1581 21.1581 20.7317 20.4525 21.0913C20.0082 21.3176 19.5281 21.412 18.9815 21.4566C18.4506 21.5 17.795 21.5 16.9821 21.5H6.51788C5.70505 21.5 5.04944 21.5 4.51853 21.4566C3.9719 21.412 3.49175 21.3176 3.04754 21.0913C2.34193 20.7317 1.76825 20.1581 1.40873 19.4525C1.18239 19.0082 1.08803 18.5281 1.04336 17.9815C0.999987 17.4506 0.999993 16.7949 1 15.9821L1 11.75C1 11.3358 1.33579 11 1.75 11Z" fill="white" stroke="white" stroke-width="2" stroke-linecap="round" stroke-linejoin="round"/>
<path d="M3.70312 33.5264C3.70312 33.3701 3.7487 33.2399 3.83984 33.1357C3.93424 33.0316 4.07422 32.9795 4.25977 32.9795C4.44531 32.9795 4.58529 33.0316 4.67969 33.1357C4.77734 33.2399 4.82617 33.3701 4.82617 33.5264C4.82617 33.6761 4.77734 33.8014 4.67969 33.9023C4.58529 34.0033 4.44531 34.0537 4.25977 34.0537C4.07422 34.0537 3.93424 34.0033 3.83984 33.9023C3.7487 33.8014 3.70312 33.6761 3.70312 33.5264ZM10.7832 31.417C10.7832 32.221 10.5993 32.8688 10.2314 33.3604C9.86361 33.8519 9.36556 34.0977 8.7373 34.0977C8.09603 34.0977 7.59147 33.8942 7.22363 33.4873V36.0312H6.32031V28.7168H7.14551L7.18945 29.3027C7.55729 28.847 8.06836 28.6191 8.72266 28.6191C9.35742 28.6191 9.85872 28.8584 10.2266 29.3369C10.5977 29.8154 10.7832 30.4811 10.7832 31.334V31.417ZM9.87988 31.3145C9.87988 30.7188 9.75293 30.2484 9.49902 29.9033C9.24512 29.5583 8.89681 29.3857 8.4541 29.3857C7.90723 29.3857 7.49707 29.6283 7.22363 30.1133V32.6377C7.49382 33.1195 7.90723 33.3604 8.46387 33.3604C8.89681 33.3604 9.24023 33.1895 9.49414 32.8477C9.7513 32.5026 9.87988 31.9915 9.87988 31.3145ZM11.7158 31.3145C11.7158 30.5039 11.9079 29.8529 12.292 29.3613C12.6761 28.8665 13.179 28.6191 13.8008 28.6191C14.4193 28.6191 14.9092 28.8307 15.2705 29.2539V26.5H16.1738V34H15.3438L15.2998 33.4336C14.9385 33.8763 14.4355 34.0977 13.791 34.0977C13.179 34.0977 12.6794 33.847 12.292 33.3457C11.9079 32.8444 11.7158 32.1901 11.7158 31.3828V31.3145ZM12.6191 31.417C12.6191 32.016 12.7428 32.4847 12.9902 32.8232C13.2376 33.1618 13.5794 33.3311 14.0156 33.3311C14.5885 33.3311 15.0068 33.0739 15.2705 32.5596V30.1328C15.0003 29.6348 14.5853 29.3857 14.0254 29.3857C13.5827 29.3857 13.2376 29.5566 12.9902 29.8984C12.7428 30.2402 12.6191 30.7464 12.6191 31.417ZM18.0244 34V29.415H17.1895V28.7168H18.0244V28.1748C18.0244 27.6084 18.1758 27.1706 18.4785 26.8613C18.7812 26.5521 19.2093 26.3975 19.7627 26.3975C19.971 26.3975 20.1777 26.4251 20.3828 26.4805L20.334 27.2129C20.181 27.1836 20.0182 27.1689 19.8457 27.1689C19.5527 27.1689 19.3265 27.2552 19.167 27.4277C19.0075 27.597 18.9277 27.8411 18.9277 28.1602V28.7168H20.0557V29.415H18.9277V34H18.0244Z" fill="#FFF8F8"/>
</svg>
