<svg width="32" height="36" viewBox="0 0 32 36" fill="none" xmlns="http://www.w3.org/2000/svg">
<g filter="url(#filter0_d)">
<path d="M14.9393 19.0607C15.5251 19.6464 16.4749 19.6464 17.0607 19.0607L26.6066 9.51472C27.1924 8.92893 27.1924 7.97918 26.6066 7.3934C26.0208 6.80761 25.0711 6.80761 24.4853 7.3934L16 15.8787L7.51472 7.3934C6.92893 6.80761 5.97919 6.80761 5.3934 7.3934C4.80761 7.97919 4.80761 8.92893 5.3934 9.51472L14.9393 19.0607ZM14.5 6.55671e-08L14.5 18L17.5 18L17.5 -6.55671e-08L14.5 6.55671e-08Z" fill="white"/>
</g>
<g filter="url(#filter1_d)">
<line x1="6" y1="22.5" x2="26" y2="22.5" stroke="white" stroke-width="3"/>
</g>
<path d="M4.70312 32.5264C4.70312 32.3701 4.7487 32.2399 4.83984 32.1357C4.93424 32.0316 5.07422 31.9795 5.25977 31.9795C5.44531 31.9795 5.58529 32.0316 5.67969 32.1357C5.77734 32.2399 5.82617 32.3701 5.82617 32.5264C5.82617 32.6761 5.77734 32.8014 5.67969 32.9023C5.58529 33.0033 5.44531 33.0537 5.25977 33.0537C5.07422 33.0537 4.93424 33.0033 4.83984 32.9023C4.7487 32.8014 4.70312 32.6761 4.70312 32.5264ZM8.25293 27.7168V33.6104C8.25293 34.626 7.79232 35.1338 6.87109 35.1338C6.67253 35.1338 6.48861 35.1045 6.31934 35.0459V34.3232C6.4235 34.3493 6.56022 34.3623 6.72949 34.3623C6.93132 34.3623 7.08431 34.307 7.18848 34.1963C7.2959 34.0889 7.34961 33.9001 7.34961 33.6299V27.7168H8.25293ZM7.25684 26.3154C7.25684 26.1722 7.30078 26.0501 7.38867 25.9492C7.47982 25.8451 7.61165 25.793 7.78418 25.793C7.95996 25.793 8.09342 25.8434 8.18457 25.9443C8.27572 26.0452 8.32129 26.1689 8.32129 26.3154C8.32129 26.4619 8.27572 26.584 8.18457 26.6816C8.09342 26.7793 7.95996 26.8281 7.78418 26.8281C7.6084 26.8281 7.47656 26.7793 7.38867 26.6816C7.30078 26.584 7.25684 26.4619 7.25684 26.3154ZM12.7891 31.5986C12.7891 31.3545 12.6963 31.1657 12.5107 31.0322C12.3285 30.8955 12.0078 30.7783 11.5488 30.6807C11.0931 30.583 10.7301 30.4658 10.46 30.3291C10.193 30.1924 9.99447 30.0296 9.86426 29.8408C9.7373 29.652 9.67383 29.4274 9.67383 29.167C9.67383 28.734 9.85612 28.3678 10.2207 28.0684C10.5885 27.7689 11.0573 27.6191 11.627 27.6191C12.2259 27.6191 12.7109 27.7738 13.082 28.083C13.4564 28.3923 13.6436 28.7878 13.6436 29.2695H12.7354C12.7354 29.0221 12.6296 28.8089 12.418 28.6299C12.2096 28.4508 11.946 28.3613 11.627 28.3613C11.2982 28.3613 11.041 28.4329 10.8555 28.5762C10.6699 28.7194 10.5771 28.9066 10.5771 29.1377C10.5771 29.3558 10.6634 29.5202 10.8359 29.6309C11.0085 29.7415 11.3193 29.8473 11.7686 29.9482C12.221 30.0492 12.5872 30.1696 12.8672 30.3096C13.1471 30.4495 13.3538 30.6188 13.4873 30.8174C13.624 31.0127 13.6924 31.252 13.6924 31.5352C13.6924 32.0072 13.5036 32.3864 13.126 32.6729C12.7484 32.9561 12.2585 33.0977 11.6562 33.0977C11.2331 33.0977 10.8587 33.0228 10.5332 32.873C10.2077 32.7233 9.95215 32.515 9.7666 32.248C9.58431 31.9779 9.49316 31.6865 9.49316 31.374H10.3965C10.4128 31.6768 10.5332 31.9176 10.7578 32.0967C10.9857 32.2725 11.2852 32.3604 11.6562 32.3604C11.998 32.3604 12.2715 32.292 12.4766 32.1553C12.6849 32.0153 12.7891 31.8298 12.7891 31.5986ZM14.6299 30.3096C14.6299 29.792 14.7308 29.3265 14.9326 28.9131C15.1377 28.4997 15.4209 28.1807 15.7822 27.9561C16.1468 27.7314 16.5618 27.6191 17.0273 27.6191C17.7467 27.6191 18.3278 27.8682 18.7705 28.3662C19.2165 28.8643 19.4395 29.5267 19.4395 30.3535V30.417C19.4395 30.9313 19.3402 31.3936 19.1416 31.8037C18.9463 32.2106 18.6647 32.528 18.2969 32.7559C17.9323 32.9837 17.5124 33.0977 17.0371 33.0977C16.321 33.0977 15.7399 32.8486 15.2939 32.3506C14.8512 31.8525 14.6299 31.1934 14.6299 30.373V30.3096ZM15.5381 30.417C15.5381 31.0029 15.6732 31.4733 15.9434 31.8281C16.2168 32.1829 16.5814 32.3604 17.0371 32.3604C17.4961 32.3604 17.8607 32.1813 18.1309 31.8232C18.401 31.4619 18.5361 30.9574 18.5361 30.3096C18.5361 29.7301 18.3978 29.2614 18.1211 28.9033C17.8477 28.542 17.4831 28.3613 17.0273 28.3613C16.5814 28.3613 16.2217 28.5387 15.9482 28.8936C15.6748 29.2484 15.5381 29.7562 15.5381 30.417ZM21.4268 27.7168L21.4561 28.3809C21.8597 27.873 22.387 27.6191 23.0381 27.6191C24.1546 27.6191 24.7178 28.249 24.7275 29.5088V33H23.8242V29.5039C23.821 29.123 23.7331 28.8415 23.5605 28.6592C23.3913 28.4769 23.126 28.3857 22.7646 28.3857C22.4717 28.3857 22.2145 28.4639 21.9932 28.6201C21.7718 28.7764 21.5993 28.9814 21.4756 29.2354V33H20.5723V27.7168H21.4268Z" fill="#FFF8F8"/>
<defs>
<filter id="filter0_d" x="0.954102" y="0" width="30.0919" height="27.5" filterUnits="userSpaceOnUse" color-interpolation-filters="sRGB">
<feFlood flood-opacity="0" result="BackgroundImageFix"/>
<feColorMatrix in="SourceAlpha" type="matrix" values="0 0 0 0 0 0 0 0 0 0 0 0 0 0 0 0 0 0 127 0"/>
<feOffset dy="4"/>
<feGaussianBlur stdDeviation="2"/>
<feColorMatrix type="matrix" values="0 0 0 0 0 0 0 0 0 0 0 0 0 0 0 0 0 0 0.25 0"/>
<feBlend mode="normal" in2="BackgroundImageFix" result="effect1_dropShadow"/>
<feBlend mode="normal" in="SourceGraphic" in2="effect1_dropShadow" result="shape"/>
</filter>
<filter id="filter1_d" x="2" y="21" width="28" height="11" filterUnits="userSpaceOnUse" color-interpolation-filters="sRGB">
<feFlood flood-opacity="0" result="BackgroundImageFix"/>
<feColorMatrix in="SourceAlpha" type="matrix" values="0 0 0 0 0 0 0 0 0 0 0 0 0 0 0 0 0 0 127 0"/>
<feOffset dy="4"/>
<feGaussianBlur stdDeviation="2"/>
<feColorMatrix type="matrix" values="0 0 0 0 0 0 0 0 0 0 0 0 0 0 0 0 0 0 0.25 0"/>
<feBlend mode="normal" in2="BackgroundImageFix" result="effect1_dropShadow"/>
<feBlend mode="normal" in="SourceGraphic" in2="effect1_dropShadow" result="shape"/>
</filter>
</defs>
</svg>
