<svg width="24" height="36" viewBox="0 0 24 36" fill="none" xmlns="http://www.w3.org/2000/svg">
<path d="M0.703125 32.5264C0.703125 32.3701 0.748698 32.2399 0.839844 32.1357C0.934245 32.0316 1.07422 31.9795 1.25977 31.9795C1.44531 31.9795 1.58529 32.0316 1.67969 32.1357C1.77734 32.2399 1.82617 32.3701 1.82617 32.5264C1.82617 32.6761 1.77734 32.8014 1.67969 32.9023C1.58529 33.0033 1.44531 33.0537 1.25977 33.0537C1.07422 33.0537 0.934245 33.0033 0.839844 32.9023C0.748698 32.8014 0.703125 32.6761 0.703125 32.5264ZM4.25293 27.7168V33.6104C4.25293 34.626 3.79232 35.1338 2.87109 35.1338C2.67253 35.1338 2.48861 35.1045 2.31934 35.0459V34.3232C2.4235 34.3493 2.56022 34.3623 2.72949 34.3623C2.93132 34.3623 3.08431 34.307 3.18848 34.1963C3.2959 34.0889 3.34961 33.9001 3.34961 33.6299V27.7168H4.25293ZM3.25684 26.3154C3.25684 26.1722 3.30078 26.0501 3.38867 25.9492C3.47982 25.8451 3.61165 25.793 3.78418 25.793C3.95996 25.793 4.09342 25.8434 4.18457 25.9443C4.27572 26.0452 4.32129 26.1689 4.32129 26.3154C4.32129 26.4619 4.27572 26.584 4.18457 26.6816C4.09342 26.7793 3.95996 26.8281 3.78418 26.8281C3.6084 26.8281 3.47656 26.7793 3.38867 26.6816C3.30078 26.584 3.25684 26.4619 3.25684 26.3154ZM8.78906 31.5986C8.78906 31.3545 8.69629 31.1657 8.51074 31.0322C8.32845 30.8955 8.00781 30.7783 7.54883 30.6807C7.0931 30.583 6.73014 30.4658 6.45996 30.3291C6.19303 30.1924 5.99447 30.0296 5.86426 29.8408C5.7373 29.652 5.67383 29.4274 5.67383 29.167C5.67383 28.734 5.85612 28.3678 6.2207 28.0684C6.58854 27.7689 7.05729 27.6191 7.62695 27.6191C8.22591 27.6191 8.71094 27.7738 9.08203 28.083C9.45638 28.3923 9.64355 28.7878 9.64355 29.2695H8.73535C8.73535 29.0221 8.62956 28.8089 8.41797 28.6299C8.20964 28.4508 7.94596 28.3613 7.62695 28.3613C7.29818 28.3613 7.04102 28.4329 6.85547 28.5762C6.66992 28.7194 6.57715 28.9066 6.57715 29.1377C6.57715 29.3558 6.66341 29.5202 6.83594 29.6309C7.00846 29.7415 7.31934 29.8473 7.76855 29.9482C8.22103 30.0492 8.58724 30.1696 8.86719 30.3096C9.14714 30.4495 9.35384 30.6188 9.4873 30.8174C9.62402 31.0127 9.69238 31.252 9.69238 31.5352C9.69238 32.0072 9.50358 32.3864 9.12598 32.6729C8.74837 32.9561 8.25846 33.0977 7.65625 33.0977C7.23307 33.0977 6.85872 33.0228 6.5332 32.873C6.20768 32.7233 5.95215 32.515 5.7666 32.248C5.58431 31.9779 5.49316 31.6865 5.49316 31.374H6.39648C6.41276 31.6768 6.5332 31.9176 6.75781 32.0967C6.98568 32.2725 7.28516 32.3604 7.65625 32.3604C7.99805 32.3604 8.27148 32.292 8.47656 32.1553C8.6849 32.0153 8.78906 31.8298 8.78906 31.5986ZM10.6299 30.3096C10.6299 29.792 10.7308 29.3265 10.9326 28.9131C11.1377 28.4997 11.4209 28.1807 11.7822 27.9561C12.1468 27.7314 12.5618 27.6191 13.0273 27.6191C13.7467 27.6191 14.3278 27.8682 14.7705 28.3662C15.2165 28.8643 15.4395 29.5267 15.4395 30.3535V30.417C15.4395 30.9313 15.3402 31.3936 15.1416 31.8037C14.9463 32.2106 14.6647 32.528 14.2969 32.7559C13.9323 32.9837 13.5124 33.0977 13.0371 33.0977C12.321 33.0977 11.7399 32.8486 11.2939 32.3506C10.8512 31.8525 10.6299 31.1934 10.6299 30.373V30.3096ZM11.5381 30.417C11.5381 31.0029 11.6732 31.4733 11.9434 31.8281C12.2168 32.1829 12.5814 32.3604 13.0371 32.3604C13.4961 32.3604 13.8607 32.1813 14.1309 31.8232C14.401 31.4619 14.5361 30.9574 14.5361 30.3096C14.5361 29.7301 14.3978 29.2614 14.1211 28.9033C13.8477 28.542 13.4831 28.3613 13.0273 28.3613C12.5814 28.3613 12.2217 28.5387 11.9482 28.8936C11.6748 29.2484 11.5381 29.7562 11.5381 30.417ZM17.4268 27.7168L17.4561 28.3809C17.8597 27.873 18.387 27.6191 19.0381 27.6191C20.1546 27.6191 20.7178 28.249 20.7275 29.5088V33H19.8242V29.5039C19.821 29.123 19.7331 28.8415 19.5605 28.6592C19.3913 28.4769 19.126 28.3857 18.7646 28.3857C18.4717 28.3857 18.2145 28.4639 17.9932 28.6201C17.7718 28.7764 17.5993 28.9814 17.4756 29.2354V33H16.5723V27.7168H17.4268Z" fill="#FFF8F8"/>
<path fill-rule="evenodd" clip-rule="evenodd" d="M11.75 1C12.1642 1 12.5 1.33579 12.5 1.75V14.9393L16.2197 11.2197C16.5126 10.9268 16.9874 10.9268 17.2803 11.2197C17.5732 11.5126 17.5732 11.9874 17.2803 12.2803L12.2803 17.2803C11.9874 17.5732 11.5126 17.5732 11.2197 17.2803L6.21967 12.2803C5.92678 11.9874 5.92678 11.5126 6.21967 11.2197C6.51256 10.9268 6.98744 10.9268 7.28033 11.2197L11 14.9393V1.75C11 1.33579 11.3358 1 11.75 1ZM1.75 11C2.16421 11 2.5 11.3358 2.5 11.75V15.95C2.5 16.8025 2.50058 17.3967 2.53838 17.8593C2.57547 18.3132 2.6446 18.574 2.74524 18.7715C2.96095 19.1948 3.30516 19.539 3.72852 19.7548C3.92604 19.8554 4.1868 19.9245 4.64068 19.9616C5.10331 19.9994 5.69755 20 6.55 20H16.95C17.8025 20 18.3967 19.9994 18.8593 19.9616C19.3132 19.9245 19.574 19.8554 19.7715 19.7548C20.1948 19.539 20.539 19.1948 20.7548 18.7715C20.8554 18.574 20.9245 18.3132 20.9616 17.8593C20.9994 17.3967 21 16.8025 21 15.95V11.75C21 11.3358 21.3358 11 21.75 11C22.1642 11 22.5 11.3358 22.5 11.75V15.9821C22.5 16.795 22.5 17.4506 22.4566 17.9815C22.412 18.5281 22.3176 19.0082 22.0913 19.4525C21.7317 20.1581 21.1581 20.7317 20.4525 21.0913C20.0082 21.3176 19.5281 21.412 18.9815 21.4566C18.4506 21.5 17.795 21.5 16.9821 21.5H6.51788C5.70505 21.5 5.04944 21.5 4.51853 21.4566C3.9719 21.412 3.49175 21.3176 3.04754 21.0913C2.34193 20.7317 1.76825 20.1581 1.40873 19.4525C1.18239 19.0082 1.08803 18.5281 1.04336 17.9815C0.999987 17.4506 0.999993 16.7949 1 15.9821L1 11.75C1 11.3358 1.33579 11 1.75 11Z" fill="white" stroke="white" stroke-width="2" stroke-linecap="round" stroke-linejoin="round"/>
</svg>
