<svg width="32" height="24" viewBox="0 0 32 24" fill="none" xmlns="http://www.w3.org/2000/svg">
<g filter="url(#filter0_d)">
<path d="M17.0607 0.939341C16.4749 0.353554 15.5251 0.353554 14.9393 0.939341L5.3934 10.4853C4.80761 11.0711 4.80761 12.0208 5.3934 12.6066C5.97918 13.1924 6.92893 13.1924 7.51472 12.6066L16 4.12132L24.4853 12.6066C25.0711 13.1924 26.0208 13.1924 26.6066 12.6066C27.1924 12.0208 27.1924 11.0711 26.6066 10.4853L17.0607 0.939341ZM17.5 20L17.5 2L14.5 2L14.5 20L17.5 20Z" fill="white"/>
</g>
<g filter="url(#filter1_d)">
<line x1="6" y1="23.5" x2="26" y2="23.5" stroke="white" stroke-width="3"/>
</g>
<defs>
<filter id="filter0_d" x="0.954102" y="0.5" width="30.0919" height="27.5" filterUnits="userSpaceOnUse" color-interpolation-filters="sRGB">
<feFlood flood-opacity="0" result="BackgroundImageFix"/>
<feColorMatrix in="SourceAlpha" type="matrix" values="0 0 0 0 0 0 0 0 0 0 0 0 0 0 0 0 0 0 127 0"/>
<feOffset dy="4"/>
<feGaussianBlur stdDeviation="2"/>
<feColorMatrix type="matrix" values="0 0 0 0 0 0 0 0 0 0 0 0 0 0 0 0 0 0 0.25 0"/>
<feBlend mode="normal" in2="BackgroundImageFix" result="effect1_dropShadow"/>
<feBlend mode="normal" in="SourceGraphic" in2="effect1_dropShadow" result="shape"/>
</filter>
<filter id="filter1_d" x="2" y="22" width="28" height="11" filterUnits="userSpaceOnUse" color-interpolation-filters="sRGB">
<feFlood flood-opacity="0" result="BackgroundImageFix"/>
<feColorMatrix in="SourceAlpha" type="matrix" values="0 0 0 0 0 0 0 0 0 0 0 0 0 0 0 0 0 0 127 0"/>
<feOffset dy="4"/>
<feGaussianBlur stdDeviation="2"/>
<feColorMatrix type="matrix" values="0 0 0 0 0 0 0 0 0 0 0 0 0 0 0 0 0 0 0.25 0"/>
<feBlend mode="normal" in2="BackgroundImageFix" result="effect1_dropShadow"/>
<feBlend mode="normal" in="SourceGraphic" in2="effect1_dropShadow" result="shape"/>
</filter>
</defs>
</svg>
