<svg width="22" height="13" viewBox="0 0 22 13" fill="none" xmlns="http://www.w3.org/2000/svg">
<path fill-rule="evenodd" clip-rule="evenodd" d="M19.7501 1C20.1643 1 20.5001 1.33579 20.5001 1.75V8.75C20.5001 9.16421 20.1643 9.5 19.7501 9.5H12.7501C12.3359 9.5 12.0001 9.16421 12.0001 8.75C12.0001 8.33579 12.3359 8 12.7501 8H18.0458C16.6799 5.32803 13.9002 3.5 10.6951 3.5C6.44913 3.5 2.95143 6.70825 2.49552 10.8324C2.45001 11.2441 2.07937 11.541 1.66766 11.4955C1.25595 11.4499 0.959095 11.0793 1.00461 10.6676C1.54359 5.79185 5.67603 2 10.6951 2C14.2069 2 17.2837 3.85629 19.0001 6.63985V1.75C19.0001 1.33579 19.3359 1 19.7501 1Z" fill="white" stroke="white" stroke-width="2" stroke-linecap="round" stroke-linejoin="round"/>
</svg>
