<svg width="22" height="13" viewBox="0 0 22 13" fill="none" xmlns="http://www.w3.org/2000/svg">
<path fill-rule="evenodd" clip-rule="evenodd" d="M1.75 1C2.16421 1 2.5 1.33579 2.5 1.75V6.63985C4.21635 3.85629 7.2932 2 10.8049 2C15.824 2 19.9565 5.79185 20.4955 10.6676C20.541 11.0793 20.2441 11.4499 19.8324 11.4955C19.4207 11.541 19.0501 11.2441 19.0045 10.8324C18.5486 6.70825 15.0509 3.5 10.8049 3.5C7.59983 3.5 4.82016 5.32803 3.45427 8H8.75C9.16421 8 9.5 8.33579 9.5 8.75C9.5 9.16421 9.16421 9.5 8.75 9.5H1.75C1.33579 9.5 1 9.16421 1 8.75V1.75C1 1.33579 1.33579 1 1.75 1Z" fill="white" stroke="white" stroke-width="2" stroke-linecap="round" stroke-linejoin="round"/>
</svg>
