<svg width="25" height="26" viewBox="0 0 25 26" fill="none" xmlns="http://www.w3.org/2000/svg">
<path d="M0.975018 13.1681C0.37017 12.602 0.338744 11.6528 0.904827 11.0479L10.1297 1.19137C10.6958 0.586518 11.645 0.555092 12.2498 1.12118C12.8547 1.68726 12.8861 2.63649 12.32 3.24133L4.12016 12.0027L12.8816 20.2026C13.4864 20.7687 13.5178 21.7179 12.9517 22.3228C12.3857 22.9276 11.4364 22.959 10.8316 22.393L0.975018 13.1681ZM17.6208 24C16.7834 22.7555 16.783 22.7558 16.7827 22.756C16.7826 22.756 16.7824 22.7562 16.7823 22.7562C16.7823 22.7563 16.7825 22.7561 16.783 22.7558C16.784 22.7551 16.7862 22.7536 16.7895 22.7514C16.796 22.7469 16.8069 22.7395 16.8219 22.7291C16.852 22.7082 16.8985 22.6758 16.9592 22.6324C17.0807 22.5457 17.2585 22.416 17.4748 22.2499C17.9094 21.9164 18.4901 21.4436 19.0801 20.8844C19.6742 20.3214 20.2511 19.6958 20.6973 19.0591C21.1525 18.4097 21.4084 17.838 21.4795 17.3741C21.5413 16.9699 21.4717 16.6309 21.1872 16.2782C20.86 15.8725 20.1623 15.3489 18.7508 14.8659C15.9125 13.8946 10.7806 13.283 2.04963 13.5721L1.95037 10.5737C10.7551 10.2823 16.3436 10.8713 19.7222 12.0275C21.4192 12.6082 22.704 13.3801 23.5223 14.3948C24.3834 15.4624 24.6224 16.6687 24.4449 17.8281C24.2766 18.9276 23.7452 19.9375 23.154 20.781C22.5538 21.6373 21.8253 22.416 21.1438 23.0618C20.4584 23.7115 19.7934 24.2522 19.3013 24.6298C19.0543 24.8194 18.8484 24.9698 18.7022 25.0742C18.629 25.1264 18.5705 25.1673 18.5291 25.1959C18.5084 25.2102 18.492 25.2215 18.4801 25.2297C18.4741 25.2337 18.4693 25.237 18.4657 25.2395C18.4638 25.2407 18.4623 25.2417 18.461 25.2426C18.4604 25.243 18.4597 25.2435 18.4594 25.2437C18.4588 25.2441 18.4582 25.2445 17.6208 24Z" fill="white"/>
</svg>
